<?xml version="1.0" encoding="UTF-8" standalone="no"?>
<!-- Generator: Adobe Illustrator 18.0.0, SVG Export Plug-In . SVG Version: 6.00 Build 0)  -->

<svg
   xmlns:dc="http://purl.org/dc/elements/1.1/"
   xmlns:cc="http://creativecommons.org/ns#"
   xmlns:rdf="http://www.w3.org/1999/02/22-rdf-syntax-ns#"
   xmlns:svg="http://www.w3.org/2000/svg"
   xmlns="http://www.w3.org/2000/svg"
   xmlns:sodipodi="http://sodipodi.sourceforge.net/DTD/sodipodi-0.dtd"
   xmlns:inkscape="http://www.inkscape.org/namespaces/inkscape"
   version="1.1"
   id="Layer_2"
   x="0px"
   y="0px"
   viewBox="0 0 512 512"
   enable-background="new 0 0 512 512"
   xml:space="preserve"
   inkscape:version="0.91 r13725"
   sodipodi:docname="folder-packettracer.svg"><metadata
     id="metadata135"><rdf:RDF><cc:Work
         rdf:about=""><dc:format>image/svg+xml</dc:format><dc:type
           rdf:resource="http://purl.org/dc/dcmitype/StillImage" /><dc:title></dc:title></cc:Work></rdf:RDF></metadata><defs
     id="defs133"><clipPath
       id="clipPath274"><path
         inkscape:connector-curvature="0"
         d="m 84.461,713.596 77.163,0 0,43.961 -77.163,0 0,-43.961 z"
         id="path276" /></clipPath></defs><sodipodi:namedview
     pagecolor="#ffffff"
     bordercolor="#666666"
     borderopacity="1"
     objecttolerance="10"
     gridtolerance="10"
     guidetolerance="10"
     inkscape:pageopacity="0"
     inkscape:pageshadow="2"
     inkscape:window-width="1366"
     inkscape:window-height="711"
     id="namedview131"
     showgrid="false"
     inkscape:zoom="0.4609375"
     inkscape:cx="256"
     inkscape:cy="256"
     inkscape:window-x="0"
     inkscape:window-y="27"
     inkscape:window-maximized="1"
     inkscape:current-layer="Layer_2" /><g
     id="g3"><path
       id="path3"
       fill="#d2e8f9"
       d="M465.7,44.2H265.9c-6.2,0-12.1,2.9-16,7.7l-10.8,13.6c-3.8,4.8-9.7,7.7-15.8,7.7h-177   C35.1,73.3,26,82.4,26,93.6v363.8c0,5.7,4.6,10.3,10.3,10.3h439.3c5.7,0,10.3-4.6,10.3-10.3V73.3v-8.7   C486,53.3,476.9,44.2,465.7,44.2z" /><path
       id="path11"
       fill="#1acdfb"
       d="M476,467.8H36c-5.5,0-10-4.5-10-10V183.5c0-11,9-20,20-20h420c11,0,20,9,20,20v274.3   C486,463.3,481.5,467.8,476,467.8z" /><g
       opacity="0.15"
       id="g7"><path
         fill="#FFFFFF"
         d="M46.3,73.2c-2.8,0.1-5.5,0.6-7.9,1.7L27.7,85.7c-1,2.4-1.6,5.2-1.6,8v0.7l21.1-21.1H46.3z"
         id="path9" /><polygon
         fill="#FFFFFF"
         points="54.2,73.2 26,101.4 26,108.5 61.3,73.2   "
         id="polygon11" /><polygon
         fill="#FFFFFF"
         points="68.3,73.2 26,115.6 26,122.6 75.4,73.2   "
         id="polygon13" /><polygon
         fill="#FFFFFF"
         points="82.4,73.2 26,129.6 26,136.7 89.5,73.2   "
         id="polygon15" /><polygon
         fill="#FFFFFF"
         points="96.6,73.2 26,143.8 26,150.9 103.7,73.2   "
         id="polygon17" /><polygon
         fill="#FFFFFF"
         points="110.7,73.2 26,157.9 26,164.9 117.8,73.2   "
         id="polygon19" /><polygon
         fill="#FFFFFF"
         points="124.8,73.2 26,172 26,179.1 131.9,73.2   "
         id="polygon21" /><polygon
         fill="#FFFFFF"
         points="138.9,73.2 26,186.1 26,193.1 145.9,73.2   "
         id="polygon23" /><polygon
         fill="#FFFFFF"
         points="153,73.2 26,200.2 26,207.3 160.1,73.2   "
         id="polygon25" /><polygon
         fill="#FFFFFF"
         points="167.1,73.2 26,214.4 26,221.4 174.2,73.2   "
         id="polygon27" /><polygon
         fill="#FFFFFF"
         points="181.2,73.2 26,228.4 26,235.5 188.3,73.2   "
         id="polygon29" /><polygon
         fill="#FFFFFF"
         points="195.4,73.2 26,242.6 26,249.6 202.4,73.2   "
         id="polygon31" /><polygon
         fill="#FFFFFF"
         points="209.5,73.2 26,256.7 26,263.8 216.6,73.2   "
         id="polygon33" /><path
         fill="#FFFFFF"
         d="M249.9,52l-7.8,9.8L258,45.8C254.9,47.2,252.1,49.2,249.9,52z"
         id="path35" /><path
         fill="#FFFFFF"
         d="M223.6,73.2L26,270.8v7L233.4,70.5C230.4,72.2,227.1,73.2,223.6,73.2z"
         id="path37" /><polygon
         fill="#FFFFFF"
         points="266.7,44.2 26,284.9 26,292 273.8,44.2   "
         id="polygon39" /><polygon
         fill="#FFFFFF"
         points="280.8,44.2 26,299 26,306.1 287.9,44.2   "
         id="polygon41" /><polygon
         fill="#FFFFFF"
         points="295,44.2 26,313.1 26,320.2 302,44.2   "
         id="polygon43" /><polygon
         fill="#FFFFFF"
         points="309,44.2 26,327.2 26,334.3 316.1,44.2   "
         id="polygon45" /><polygon
         fill="#FFFFFF"
         points="323.1,44.2 26,341.4 26,348.5 330.2,44.2   "
         id="polygon47" /><polygon
         fill="#FFFFFF"
         points="337.3,44.2 26,355.5 26,362.5 344.4,44.2   "
         id="polygon49" /><polygon
         fill="#FFFFFF"
         points="351.4,44.2 26,369.6 26,376.6 358.5,44.2   "
         id="polygon51" /><polygon
         fill="#FFFFFF"
         points="365.5,44.2 26,383.7 26,390.8 372.6,44.2   "
         id="polygon53" /><polygon
         fill="#FFFFFF"
         points="379.6,44.2 26,397.8 26,404.9 386.7,44.2   "
         id="polygon55" /><polygon
         fill="#FFFFFF"
         points="393.8,44.2 26,412 26,419 400.8,44.2   "
         id="polygon57" /><polygon
         fill="#FFFFFF"
         points="407.9,44.2 26,426 26,433.1 415,44.2   "
         id="polygon59" /><polygon
         fill="#FFFFFF"
         points="422,44.2 26,440.1 26,447.2 429,44.2   "
         id="polygon61" /><path
         fill="#FFFFFF"
         d="M436.1,44.2L26,454.3v3.1c0,1.1,0.2,2.3,0.5,3.4L443.1,44.2H436.1z"
         id="path63" /><path
         fill="#FFFFFF"
         d="M450.2,44.2L29.4,465c1.3,1.2,2.9,2,4.6,2.5L457.2,44.2H450.2z"
         id="path65" /><path
         fill="#FFFFFF"
         d="M465.8,44.2h-1.5L40.8,467.8h7L470.8,44.9C469.1,44.5,467.5,44.2,465.8,44.2z"
         id="path67" /><path
         fill="#FFFFFF"
         d="M475.8,46.9L55,467.8h7L479.8,50C478.6,48.8,477.2,47.8,475.8,46.9z"
         id="path69" /><path
         fill="#FFFFFF"
         d="M483,53.8L69.1,467.8h7.1l409-409C484.6,57,483.9,55.3,483,53.8z"
         id="path71" /><polygon
         fill="#FFFFFF"
         points="486,64.9 83.2,467.8 90.2,467.8 486,72.1   "
         id="polygon73" /><polygon
         fill="#FFFFFF"
         points="486,79.1 97.2,467.8 104.3,467.8 486,86.2   "
         id="polygon75" /><polygon
         fill="#FFFFFF"
         points="486,93.2 111.4,467.8 118.4,467.8 486,100.2   "
         id="polygon77" /><polygon
         fill="#FFFFFF"
         points="486,107.3 125.5,467.8 132.6,467.8 486,114.4   "
         id="polygon79" /><polygon
         fill="#FFFFFF"
         points="486,121.4 139.6,467.8 146.7,467.8 486,128.5   "
         id="polygon81" /><polygon
         fill="#FFFFFF"
         points="486,135.6 153.8,467.8 160.8,467.8 486,142.6   "
         id="polygon83" /><polygon
         fill="#FFFFFF"
         points="486,149.6 167.9,467.8 174.9,467.8 486,156.7   "
         id="polygon85" /><polygon
         fill="#FFFFFF"
         points="486,163.8 181.9,467.8 189.1,467.8 486,170.9   "
         id="polygon87" /><polygon
         fill="#FFFFFF"
         points="486,177.9 196.1,467.8 203.1,467.8 486,184.9   "
         id="polygon89" /><polygon
         fill="#FFFFFF"
         points="486,192 210.2,467.8 217.2,467.8 486,199.1   "
         id="polygon91" /><polygon
         fill="#FFFFFF"
         points="486,206.1 224.3,467.8 231.4,467.8 486,213.2   "
         id="polygon93" /><polygon
         fill="#FFFFFF"
         points="486,220.2 238.4,467.8 245.5,467.8 486,227.3   "
         id="polygon95" /><polygon
         fill="#FFFFFF"
         points="486,234.4 252.6,467.8 259.6,467.8 486,241.4   "
         id="polygon97" /><polygon
         fill="#FFFFFF"
         points="486,248.4 266.6,467.8 273.7,467.8 486,255.5   "
         id="polygon99" /><polygon
         fill="#FFFFFF"
         points="486,262.5 280.8,467.8 287.9,467.8 486,269.6   "
         id="polygon101" /><polygon
         fill="#FFFFFF"
         points="486,276.7 294.9,467.8 302,467.8 486,283.8   "
         id="polygon103" /><polygon
         fill="#FFFFFF"
         points="486,290.8 309,467.8 316,467.8 486,297.9   "
         id="polygon105" /><polygon
         fill="#FFFFFF"
         points="486,304.9 323.1,467.8 330.2,467.8 486,312   "
         id="polygon107" /><polygon
         fill="#FFFFFF"
         points="486,319 337.2,467.8 344.3,467.8 486,326.1   "
         id="polygon109" /><polygon
         fill="#FFFFFF"
         points="486,333.1 351.4,467.8 358.4,467.8 486,340.2   "
         id="polygon111" /><polygon
         fill="#FFFFFF"
         points="486,347.2 365.5,467.8 372.5,467.8 486,354.4   "
         id="polygon113" /><polygon
         fill="#FFFFFF"
         points="486,361.4 379.5,467.8 386.6,467.8 486,368.5   "
         id="polygon115" /><polygon
         fill="#FFFFFF"
         points="486,375.5 393.7,467.8 400.8,467.8 486,382.5   "
         id="polygon117" /><polygon
         fill="#FFFFFF"
         points="486,389.6 407.8,467.8 414.9,467.8 486,396.6   "
         id="polygon119" /><polygon
         fill="#FFFFFF"
         points="486,403.7 421.9,467.8 429,467.8 486,410.8   "
         id="polygon121" /><polygon
         fill="#FFFFFF"
         points="486,417.9 436,467.8 443.1,467.8 486,424.9   "
         id="polygon123" /><polygon
         fill="#FFFFFF"
         points="486,432 450.1,467.8 457.2,467.8 486,439   "
         id="polygon125" /><polygon
         fill="#FFFFFF"
         points="486,446 464.2,467.8 471.4,467.8 486,453.1   "
         id="polygon127" /><path
         fill="#FFFFFF"
         d="M485.4,460.7l-6.5,6.5C482,466.2,484.4,463.8,485.4,460.7z"
         id="path129" /></g></g><g
     transform="matrix(0.39662336,0,0,0.41378594,100.6049,-29.944054)"
     id="layer1"
     style="fill:#ffffff;fill-opacity:1"><path
       inkscape:connector-curvature="0"
       d="m 271.00014,1021.205 -32.63478,0 0,-129.33009 32.63478,0 0,129.33009 z"
       id="path268"
       style="fill:#ffffff;fill-opacity:1;fill-rule:nonzero;stroke:none" /><g
       transform="matrix(10.337276,0,0,-10.337276,-861.34511,8446.2018)"
       id="g270"
       style="fill:#ffffff;fill-opacity:1"><g
         clip-path="url(#clipPath274)"
         id="g272"
         style="fill:#ffffff;fill-opacity:1"><g
           transform="translate(134.9958,727.2001)"
           id="g278"
           style="fill:#ffffff;fill-opacity:1"><path
             inkscape:connector-curvature="0"
             d="m 0,0 c -0.129,0.066 -1.146,0.668 -2.656,0.668 -2.041,0 -3.457,-1.421 -3.457,-3.337 0,-1.859 1.355,-3.34 3.457,-3.34 1.484,0 2.517,0.589 2.656,0.664 l 0,-3.358 c -0.396,-0.111 -1.475,-0.445 -2.877,-0.445 -3.551,0 -6.668,2.448 -6.668,6.479 0,3.736 2.82,6.476 6.668,6.476 1.48,0 2.578,-0.361 2.877,-0.449 L 0,0 Z"
             id="path280"
             style="fill:#ffffff;fill-opacity:1;fill-rule:nonzero;stroke:none" /></g><g
           transform="translate(102.0426,727.2001)"
           id="g282"
           style="fill:#ffffff;fill-opacity:1"><path
             inkscape:connector-curvature="0"
             d="m 0,0 c -0.127,0.066 -1.142,0.668 -2.652,0.668 -2.045,0 -3.46,-1.421 -3.46,-3.337 0,-1.859 1.356,-3.34 3.46,-3.34 1.484,0 2.516,0.589 2.652,0.664 l 0,-3.358 c -0.392,-0.111 -1.469,-0.445 -2.879,-0.445 -3.549,0 -6.662,2.448 -6.662,6.479 0,3.736 2.82,6.476 6.662,6.476 1.486,0 2.582,-0.361 2.879,-0.449 L 0,0 Z"
             id="path284"
             style="fill:#ffffff;fill-opacity:1;fill-rule:nonzero;stroke:none" /></g><g
           transform="translate(144.9274,727.8212)"
           id="g286"
           style="fill:#ffffff;fill-opacity:1"><path
             inkscape:connector-curvature="0"
             d="m 0,0 c -1.873,0 -3.264,-1.474 -3.264,-3.29 0,-1.82 1.391,-3.293 3.264,-3.293 1.871,0 3.266,1.473 3.266,3.293 C 3.266,-1.474 1.871,0 0,0 m 6.611,-3.29 c 0,-3.579 -2.763,-6.479 -6.611,-6.479 -3.848,0 -6.607,2.9 -6.607,6.479 0,3.573 2.759,6.476 6.607,6.476 3.848,0 6.611,-2.903 6.611,-6.476"
             id="path288"
             style="fill:#ffffff;fill-opacity:1;fill-rule:nonzero;stroke:none" /></g><g
           transform="translate(121.5124,727.9413)"
           id="g290"
           style="fill:#ffffff;fill-opacity:1"><path
             inkscape:connector-curvature="0"
             d="m 0,0 c -0.047,0.015 -1.376,0.382 -2.468,0.382 -1.265,0 -1.953,-0.424 -1.953,-1.025 0,-0.762 0.928,-1.028 1.447,-1.192 l 0.871,-0.277 c 2.049,-0.652 2.983,-2.055 2.983,-3.579 0,-3.143 -2.764,-4.199 -5.18,-4.199 -1.679,0 -3.252,0.309 -3.407,0.342 l 0,2.879 c 0.278,-0.07 1.602,-0.465 2.981,-0.465 1.571,0 2.293,0.459 2.293,1.168 0,0.634 -0.625,1 -1.408,1.246 -0.191,0.064 -0.478,0.154 -0.674,0.218 -1.758,0.556 -3.224,1.589 -3.224,3.66 0,2.34 1.752,3.911 4.662,3.911 1.537,0 2.983,-0.373 3.077,-0.398 L 0,0 Z"
             id="path292"
             style="fill:#ffffff;fill-opacity:1;fill-rule:nonzero;stroke:none" /></g><g
           transform="translate(89.154,744.2304)"
           id="g294"
           style="fill:#ffffff;fill-opacity:1"><path
             inkscape:connector-curvature="0"
             d="M 0,0 C 0,0.862 -0.704,1.561 -1.567,1.561 -2.43,1.561 -3.135,0.862 -3.135,0 l 0,-3.284 c 0,-0.867 0.705,-1.567 1.568,-1.567 0.863,0 1.567,0.7 1.567,1.567 L 0,0 Z"
             id="path296"
             style="fill:#ffffff;fill-opacity:1;fill-rule:nonzero;stroke:none" /></g><g
           transform="translate(97.7633,748.5409)"
           id="g298"
           style="fill:#ffffff;fill-opacity:1"><path
             inkscape:connector-curvature="0"
             d="M 0,0 C 0,0.862 -0.704,1.563 -1.567,1.563 -2.431,1.563 -3.135,0.862 -3.135,0 l 0,-7.595 c 0,-0.867 0.704,-1.566 1.568,-1.566 0.863,0 1.567,0.699 1.567,1.566 L 0,0 Z"
             id="path300"
             style="fill:#ffffff;fill-opacity:1;fill-rule:nonzero;stroke:none" /></g><g
           transform="translate(106.3727,754.4384)"
           id="g302"
           style="fill:#ffffff;fill-opacity:1"><path
             inkscape:connector-curvature="0"
             d="m 0,0 c 0,0.862 -0.704,1.562 -1.567,1.562 -0.864,0 -1.568,-0.7 -1.568,-1.562 l 0,-16.613 c 0,-0.867 0.704,-1.567 1.568,-1.567 0.863,0 1.567,0.7 1.567,1.567 L 0,0 Z"
             id="path304"
             style="fill:#ffffff;fill-opacity:1;fill-rule:nonzero;stroke:none" /></g><g
           transform="translate(114.9821,748.5409)"
           id="g306"
           style="fill:#ffffff;fill-opacity:1"><path
             inkscape:connector-curvature="0"
             d="M 0,0 C 0,0.862 -0.704,1.563 -1.567,1.563 -2.431,1.563 -3.135,0.862 -3.135,0 l 0,-7.595 c 0,-0.867 0.704,-1.566 1.568,-1.566 0.863,0 1.567,0.699 1.567,1.566 L 0,0 Z"
             id="path308"
             style="fill:#ffffff;fill-opacity:1;fill-rule:nonzero;stroke:none" /></g><g
           transform="translate(123.5817,744.2304)"
           id="g310"
           style="fill:#ffffff;fill-opacity:1"><path
             inkscape:connector-curvature="0"
             d="M 0,0 C 0,0.862 -0.699,1.561 -1.558,1.561 -2.421,1.561 -3.125,0.862 -3.125,0 l 0,-3.284 c 0,-0.867 0.704,-1.567 1.567,-1.567 0.859,0 1.558,0.7 1.558,1.567 L 0,0 Z"
             id="path312"
             style="fill:#ffffff;fill-opacity:1;fill-rule:nonzero;stroke:none" /></g><g
           transform="translate(132.195,748.5409)"
           id="g314"
           style="fill:#ffffff;fill-opacity:1"><path
             inkscape:connector-curvature="0"
             d="M 0,0 C 0,0.862 -0.699,1.563 -1.562,1.563 -2.424,1.563 -3.125,0.862 -3.125,0 l 0,-7.595 c 0,-0.867 0.701,-1.566 1.563,-1.566 0.863,0 1.562,0.699 1.562,1.566 L 0,0 Z"
             id="path316"
             style="fill:#ffffff;fill-opacity:1;fill-rule:nonzero;stroke:none" /></g><g
           transform="translate(140.8102,754.4384)"
           id="g318"
           style="fill:#ffffff;fill-opacity:1"><path
             inkscape:connector-curvature="0"
             d="m 0,0 c 0,0.862 -0.699,1.562 -1.562,1.562 -0.864,0 -1.563,-0.7 -1.563,-1.562 l 0,-16.613 c 0,-0.867 0.699,-1.567 1.563,-1.567 0.863,0 1.562,0.7 1.562,1.567 L 0,0 Z"
             id="path320"
             style="fill:#ffffff;fill-opacity:1;fill-rule:nonzero;stroke:none" /></g><g
           transform="translate(149.4235,748.5409)"
           id="g322"
           style="fill:#ffffff;fill-opacity:1"><path
             inkscape:connector-curvature="0"
             d="M 0,0 C 0,0.862 -0.699,1.563 -1.582,1.563 -2.445,1.563 -3.144,0.862 -3.144,0 l 0,-7.595 c 0,-0.867 0.699,-1.566 1.562,-1.566 0.883,0 1.582,0.699 1.582,1.566 L 0,0 Z"
             id="path324"
             style="fill:#ffffff;fill-opacity:1;fill-rule:nonzero;stroke:none" /></g><g
           transform="translate(158.0192,744.2304)"
           id="g326"
           style="fill:#ffffff;fill-opacity:1"><path
             inkscape:connector-curvature="0"
             d="M 0,0 C 0,0.862 -0.701,1.561 -1.563,1.561 -2.426,1.561 -3.127,0.862 -3.127,0 l 0,-3.284 c 0,-0.867 0.701,-1.567 1.564,-1.567 0.862,0 1.563,0.7 1.563,1.567 L 0,0 Z"
             id="path328"
             style="fill:#ffffff;fill-opacity:1;fill-rule:nonzero;stroke:none" /></g><g
           transform="translate(156.2126,719.9218)"
           id="g330"
           style="fill:#ffffff;fill-opacity:1"><path
             inkscape:connector-curvature="0"
             d="m 0,0 0,-0.196 -0.558,0 0,-1.451 -0.229,0 0,1.451 -0.561,0 0,0.196 L 0,0 Z"
             id="path332"
             style="fill:#ffffff;fill-opacity:1;fill-rule:nonzero;stroke:none" /></g><g
           transform="translate(156.3297,719.9218)"
           id="g334"
           style="fill:#ffffff;fill-opacity:1"><path
             inkscape:connector-curvature="0"
             d="m 0,0 0.359,0 0.493,-1.351 0.008,0 0.477,1.351 0.352,0 0,-1.647 -0.235,0 0,1.35 -0.008,0 -0.5,-1.35 -0.217,0 -0.488,1.35 -0.011,0 0,-1.35 -0.23,0 L 0,0 Z"
             id="path336"
             style="fill:#ffffff;fill-opacity:1;fill-rule:nonzero;stroke:none" /></g></g></g></g></svg>